ffmpeg started on 2025-06-07 at 15:56:22
Report written to "D:\Convert\FFMetrics\reports\psnr_report-6.txt"
Log level: 32
Command line:
ffmpeg -hide_banner -nostdin -i "G:\\\xc0\xed\xe8\xec\xe5\\\xce\xed\xe3\xee\xe8\xed\xe3\xe8\\!_36_\xce\xf1\xe5\xed\xfc_2024\\DreamCast\\\xd6\xe5\xeb\xe8\xf2\xe5\xeb\xfc, \xea\xee\xf2\xee\xf0\xee\xe3\xee \xe8\xf1\xea\xeb\xfe\xf7\xe8\xeb\xe8 \xe8\xe7 \xe3\xf0\xf3\xef\xef\xfb, \xee\xea\xe0\xe7\xe0\xeb\xf1\xff \xf1\xe8\xeb\xfc\xed\xe5\xe9\xf8\xe8\xec!\\[DC] sonochiyushi - 02_Telegram_HEVC.mkv" -i "G:\\\xc0\xed\xe8\xec\xe5\\\xce\xed\xe3\xee\xe8\xed\xe3\xe8\\!_36_\xce\xf1\xe5\xed\xfc_2024\\DreamCast\\\xd6\xe5\xeb\xe8\xf2\xe5\xeb\xfc, \xea\xee\xf2\xee\xf0\xee\xe3\xee \xe8\xf1\xea\xeb\xfe\xf7\xe8\xeb\xe8 \xe8\xe7 \xe3\xf0\xf3\xef\xef\xfb, \xee\xea\xe0\xe7\xe0\xeb\xf1\xff \xf1\xe8\xeb\xfc\xed\xe5\xe9\xf8\xe8\xec!\\[DC] sonochiyushi - 02_Telegram.mp4" -lavfi "[0:v]settb=AVTB,setpts=PTS-STARTPTS,format=pix_fmts=yuv420p10,fps=24000/1001,scale=1920:1080:flags=bicubic[main];[1:v]settb=AVTB,setpts=PTS-STARTPTS,format=pix_fmts=yuv420p,fps=24000/1001,scale=1920:1080:flags=bicubic[ref];[main][ref]psnr=eof_action=endall:stats_file='D\\:/Convert/FFMetrics/logs/psnr_logfile-6.txt'" -f null -
Input #0, matroska,webm, from 'G:\Аниме\Онгоинги\!_36_Осень_2024\DreamCast\Целитель, которого исключили из группы, оказался сильнейшим!\[DC] sonochiyushi - 02_Telegram_HEVC.mkv':
  Metadata:
    COMPATIBLE_BRANDS: isomiso2avc1mp41
    MAJOR_BRAND     : isom
    MINOR_VERSION   : 512
    ENCODER         : Lavf61.7.100
  Duration: 00:23:30.60, start: -0.021000, bitrate: 859 kb/s
  Stream #0:0: Video: hevc (Main 10), yuv420p10le(tv, bt709, progressive), 1920x1080 [SAR 1:1 DAR 16:9], 23.98 fps, 23.98 tbr, 1k tbn (default)
      Metadata:
        HANDLER_NAME    : VideoHandler
        VENDOR_ID       : [0][0][0][0]
        ENCODER         : Lavc61.19.100 libx265
        BPS             : 661769
        DURATION        : 00:23:30.492708333
        NUMBER_OF_FRAMES: 33818
        NUMBER_OF_BYTES : 116677631
        _STATISTICS_WRITING_APP: mkvpropedit v66.0.0 ('Josie') 64-bit
        _STATISTICS_WRITING_DATE_UTC: 2025-06-05 07:27:08
        _STATISTICS_TAGS: BPS DURATION NUMBER_OF_FRAMES NUMBER_OF_BYTES
  Stream #0:1: Audio: aac (LC), 48000 Hz, stereo, fltp (default)
      Metadata:
        HANDLER_NAME    : SoundHandler
        VENDOR_ID       : [0][0][0][0]
        ENCODER         : Lavc61.19.100 aac
        BPS             : 193646
        DURATION        : 00:23:30.602000000
        NUMBER_OF_FRAMES: 66123
        NUMBER_OF_BYTES : 34144789
        _STATISTICS_WRITING_APP: mkvpropedit v66.0.0 ('Josie') 64-bit
        _STATISTICS_WRITING_DATE_UTC: 2025-06-05 07:27:08
        _STATISTICS_TAGS: BPS DURATION NUMBER_OF_FRAMES NUMBER_OF_BYTES
Input #1, mov,mp4,m4a,3gp,3g2,mj2, from 'G:\Аниме\Онгоинги\!_36_Осень_2024\DreamCast\Целитель, которого исключили из группы, оказался сильнейшим!\[DC] sonochiyushi - 02_Telegram.mp4':
  Metadata:
    major_brand     : isom
    minor_version   : 512
    compatible_brands: isomiso2avc1mp41
    encoder         : Lavf61.1.100
  Duration: 00:23:30.56, start: 0.000000, bitrate: 3508 kb/s
  Stream #1:0[0x1](und): Video: h264 (High) (avc1 / 0x31637661), yuv420p(tv, bt709, progressive), 1920x1080 [SAR 1:1 DAR 16:9], 3360 kb/s, 23.98 fps, 23.98 tbr, 24k tbn (default)
      Metadata:
        handler_name    : VideoHandler
        vendor_id       : [0][0][0][0]
        encoder         : Lavc61.3.100 h264_qsv
  Stream #1:1[0x2](und): Audio: aac (HE-AACv2) (mp4a / 0x6134706D), 48000 Hz, stereo, fltp, 144 kb/s (default)
      Metadata:
        handler_name    : SoundHandler
        vendor_id       : [0][0][0][0]
Stream mapping:
  Stream #0:0 (hevc) -> settb:default
  Stream #1:0 (h264) -> settb:default
  psnr:default -> Stream #0:0 (wrapped_avframe)
  Stream #0:1 -> #0:1 (aac (native) -> pcm_s16le (native))
Output #0, null, to 'pipe:':
  Metadata:
    COMPATIBLE_BRANDS: isomiso2avc1mp41
    MAJOR_BRAND     : isom
    MINOR_VERSION   : 512
    encoder         : Lavf61.7.100
  Stream #0:0: Video: wrapped_avframe, yuv420p10le(tv, bt709, progressive), 1920x1080 [SAR 1:1 DAR 16:9], q=2-31, 200 kb/s, 23.98 fps, 23.98 tbn
      Metadata:
        encoder         : Lavc61.19.100 wrapped_avframe
  Stream #0:1: Audio: pcm_s16le, 48000 Hz, stereo, s16, 1536 kb/s (default)
      Metadata:
        HANDLER_NAME    : SoundHandler
        VENDOR_ID       : [0][0][0][0]
        _STATISTICS_TAGS: BPS DURATION NUMBER_OF_FRAMES NUMBER_OF_BYTES
        BPS             : 193646
        DURATION        : 00:23:30.602000000
        NUMBER_OF_FRAMES: 66123
        NUMBER_OF_BYTES : 34144789
        _STATISTICS_WRITING_APP: mkvpropedit v66.0.0 ('Josie') 64-bit
        _STATISTICS_WRITING_DATE_UTC: 2025-06-05 07:27:08
        encoder         : Lavc61.19.100 pcm_s16le
frame=  175 fps=0.0 q=-0.0 size=N/A time=00:00:07.29 bitrate=N/A speed=14.3x    frame=  436 fps=423 q=-0.0 size=N/A time=00:00:18.18 bitrate=N/A speed=17.6x    frame=  683 fps=444 q=-0.0 size=N/A time=00:00:28.48 bitrate=N/A speed=18.5x    frame=  933 fps=455 q=-0.0 size=N/A time=00:00:38.91 bitrate=N/A speed=  19x    frame= 1162 fps=451 q=-0.0 size=N/A time=00:00:48.46 bitrate=N/A speed=18.8x    frame= 1410 fps=457 q=-0.0 size=N/A time=00:00:58.80 bitrate=N/A speed=19.1x    frame= 1655 fps=460 q=-0.0 size=N/A time=00:01:09.02 bitrate=N/A speed=19.2x    frame= 1919 fps=465 q=-0.0 size=N/A time=00:01:20.03 bitrate=N/A speed=19.4x    frame= 2151 fps=464 q=-0.0 size=N/A time=00:01:29.71 bitrate=N/A speed=19.4x    frame= 2398 fps=466 q=-0.0 size=N/A time=00:01:40.01 bitrate=N/A speed=19.4x    frame= 2649 fps=467 q=-0.0 size=N/A time=00:01:50.48 bitrate=N/A speed=19.5x    frame= 2893 fps=468 q=-0.0 size=N/A time=00:02:00.66 bitrate=N/A speed=19.5x    frame= 3149 fps=471 q=-0.0 size=N/A time=00:02:11.33 bitrate=N/A speed=19.6x    frame= 3356 fps=465 q=-0.0 size=N/A time=00:02:19.97 bitrate=N/A speed=19.4x    frame= 3563 fps=461 q=-0.0 size=N/A time=00:02:28.60 bitrate=N/A speed=19.2x    frame= 3809 fps=462 q=-0.0 size=N/A time=00:02:38.86 bitrate=N/A speed=19.3x    frame= 4024 fps=460 q=-0.0 size=N/A time=00:02:47.83 bitrate=N/A speed=19.2x    frame= 4213 fps=455 q=-0.0 size=N/A time=00:02:55.71 bitrate=N/A speed=  19x    frame= 4426 fps=452 q=-0.0 size=N/A time=00:03:04.60 bitrate=N/A speed=18.9x    frame= 4613 fps=448 q=-0.0 size=N/A time=00:03:12.40 bitrate=N/A speed=18.7x    frame= 4837 fps=447 q=-0.0 size=N/A time=00:03:21.74 bitrate=N/A speed=18.6x    frame= 5009 fps=442 q=-0.0 size=N/A time=00:03:28.91 bitrate=N/A speed=18.4x    frame= 5202 fps=439 q=-0.0 size=N/A time=00:03:36.96 bitrate=N/A speed=18.3x    frame= 5468 fps=442 q=-0.0 size=N/A time=00:03:48.06 bitrate=N/A speed=18.4x    frame= 5721 fps=444 q=-0.0 size=N/A time=00:03:58.61 bitrate=N/A speed=18.5x    frame= 5983 fps=447 q=-0.0 size=N/A time=00:04:09.54 bitrate=N/A speed=18.6x    frame= 6276 fps=451 q=-0.0 size=N/A time=00:04:21.76 bitrate=N/A speed=18.8x    frame= 6526 fps=452 q=-0.0 size=N/A time=00:04:32.18 bitrate=N/A speed=18.9x    frame= 6796 fps=455 q=-0.0 size=N/A time=00:04:43.44 bitrate=N/A speed=  19x    frame= 7078 fps=458 q=-0.0 size=N/A time=00:04:55.21 bitrate=N/A speed=19.1x    frame= 7370 fps=461 q=-0.0 size=N/A time=00:05:07.39 bitrate=N/A speed=19.2x    frame= 7641 fps=463 q=-0.0 size=N/A time=00:05:18.69 bitrate=N/A speed=19.3x    frame= 7915 fps=465 q=-0.0 size=N/A time=00:05:30.12 bitrate=N/A speed=19.4x    frame= 8172 fps=466 q=-0.0 size=N/A time=00:05:40.84 bitrate=N/A speed=19.4x    frame= 8428 fps=467 q=-0.0 size=N/A time=00:05:51.51 bitrate=N/A speed=19.5x    frame= 8683 fps=468 q=-0.0 size=N/A time=00:06:02.15 bitrate=N/A speed=19.5x    frame= 8943 fps=469 q=-0.0 size=N/A time=00:06:12.99 bitrate=N/A speed=19.6x    frame= 9210 fps=470 q=-0.0 size=N/A time=00:06:24.17 bitrate=N/A speed=19.6x    frame= 9483 fps=472 q=-0.0 size=N/A time=00:06:35.52 bitrate=N/A speed=19.7x    frame= 9731 fps=472 q=-0.0 size=N/A time=00:06:45.86 bitrate=N/A speed=19.7x    frame= 9982 fps=472 q=-0.0 size=N/A time=00:06:56.33 bitrate=N/A speed=19.7x    frame=10207 fps=472 q=-0.0 size=N/A time=00:07:05.71 bitrate=N/A speed=19.7x    frame=10481 fps=473 q=-0.0 size=N/A time=00:07:17.14 bitrate=N/A speed=19.7x    frame=10757 fps=474 q=-0.0 size=N/A time=00:07:28.65 bitrate=N/A speed=19.8x    frame=11009 fps=475 q=-0.0 size=N/A time=00:07:39.16 bitrate=N/A speed=19.8x    frame=11292 fps=476 q=-0.0 size=N/A time=00:07:50.97 bitrate=N/A speed=19.9x    frame=11573 fps=478 q=-0.0 size=N/A time=00:08:02.69 bitrate=N/A speed=19.9x    frame=11849 fps=479 q=-0.0 size=N/A time=00:08:14.20 bitrate=N/A speed=  20x    frame=12092 fps=479 q=-0.0 size=N/A time=00:08:24.33 bitrate=N/A speed=  20x    frame=12356 fps=479 q=-0.0 size=N/A time=00:08:35.34 bitrate=N/A speed=  20x    frame=12639 fps=481 q=-0.0 size=N/A time=00:08:47.15 bitrate=N/A speed=20.1x    frame=12924 fps=482 q=-0.0 size=N/A time=00:08:59.03 bitrate=N/A speed=20.1x    frame=13192 fps=483 q=-0.0 size=N/A time=00:09:10.21 bitrate=N/A speed=20.1x    frame=13482 fps=484 q=-0.0 size=N/A time=00:09:22.31 bitrate=N/A speed=20.2x    frame=13753 fps=485 q=-0.0 size=N/A time=00:09:33.61 bitrate=N/A speed=20.2x    frame=14025 fps=486 q=-0.0 size=N/A time=00:09:44.95 bitrate=N/A speed=20.3x    frame=14266 fps=486 q=-0.0 size=N/A time=00:09:55.01 bitrate=N/A speed=20.3x    frame=14509 fps=485 q=-0.0 size=N/A time=00:10:05.14 bitrate=N/A speed=20.2x    frame=14742 fps=485 q=-0.0 size=N/A time=00:10:14.86 bitrate=N/A speed=20.2x    frame=14993 fps=485 q=-0.0 size=N/A time=00:10:25.33 bitrate=N/A speed=20.2x    frame=15278 fps=486 q=-0.0 size=N/A time=00:10:37.21 bitrate=N/A speed=20.3x    frame=15553 fps=487 q=-0.0 size=N/A time=00:10:48.68 bitrate=N/A speed=20.3x    frame=15828 fps=487 q=-0.0 size=N/A time=00:11:00.15 bitrate=N/A speed=20.3x    frame=16109 fps=488 q=-0.0 size=N/A time=00:11:11.87 bitrate=N/A speed=20.4x    frame=16362 fps=488 q=-0.0 size=N/A time=00:11:22.43 bitrate=N/A speed=20.4x    frame=16620 fps=489 q=-0.0 size=N/A time=00:11:33.23 bitrate=N/A speed=20.4x    frame=16890 fps=489 q=-0.0 size=N/A time=00:11:44.45 bitrate=N/A speed=20.4x    frame=17155 fps=489 q=-0.0 size=N/A time=00:11:55.50 bitrate=N/A speed=20.4x    frame=17438 fps=490 q=-0.0 size=N/A time=00:12:07.30 bitrate=N/A speed=20.4x    frame=17675 fps=490 q=-0.0 size=N/A time=00:12:17.19 bitrate=N/A speed=20.4x    frame=17938 fps=490 q=-0.0 size=N/A time=00:12:28.16 bitrate=N/A speed=20.4x    frame=18229 fps=491 q=-0.0 size=N/A time=00:12:40.30 bitrate=N/A speed=20.5x    frame=18481 fps=491 q=-0.0 size=N/A time=00:12:50.81 bitrate=N/A speed=20.5x    frame=18714 fps=491 q=-0.0 size=N/A time=00:13:00.52 bitrate=N/A speed=20.5x    frame=18935 fps=490 q=-0.0 size=N/A time=00:13:09.74 bitrate=N/A speed=20.4x    frame=19192 fps=490 q=-0.0 size=N/A time=00:13:20.46 bitrate=N/A speed=20.4x    frame=19465 fps=490 q=-0.0 size=N/A time=00:13:31.85 bitrate=N/A speed=20.5x    frame=19663 fps=489 q=-0.0 size=N/A time=00:13:40.11 bitrate=N/A speed=20.4x    frame=19938 fps=490 q=-0.0 size=N/A time=00:13:51.58 bitrate=N/A speed=20.4x    frame=20204 fps=490 q=-0.0 size=N/A time=00:14:02.67 bitrate=N/A speed=20.4x    frame=20472 fps=490 q=-0.0 size=N/A time=00:14:13.85 bitrate=N/A speed=20.4x    frame=20711 fps=490 q=-0.0 size=N/A time=00:14:23.82 bitrate=N/A speed=20.4x    frame=20974 fps=490 q=-0.0 size=N/A time=00:14:34.79 bitrate=N/A speed=20.4x    frame=21202 fps=490 q=-0.0 size=N/A time=00:14:44.30 bitrate=N/A speed=20.4x    frame=21452 fps=490 q=-0.0 size=N/A time=00:14:54.72 bitrate=N/A speed=20.4x    frame=21667 fps=489 q=-0.0 size=N/A time=00:15:03.69 bitrate=N/A speed=20.4x    frame=21929 fps=489 q=-0.0 size=N/A time=00:15:14.62 bitrate=N/A speed=20.4x    frame=22195 fps=489 q=-0.0 size=N/A time=00:15:25.71 bitrate=N/A speed=20.4x    frame=22454 fps=489 q=-0.0 size=N/A time=00:15:36.51 bitrate=N/A speed=20.4x    frame=22686 fps=489 q=-0.0 size=N/A time=00:15:46.19 bitrate=N/A speed=20.4x    frame=22950 fps=489 q=-0.0 size=N/A time=00:15:57.20 bitrate=N/A speed=20.4x    frame=23212 fps=489 q=-0.0 size=N/A time=00:16:08.13 bitrate=N/A speed=20.4x    frame=23481 fps=490 q=-0.0 size=N/A time=00:16:19.35 bitrate=N/A speed=20.4x    frame=23741 fps=490 q=-0.0 size=N/A time=00:16:30.23 bitrate=N/A speed=20.4x    frame=24009 fps=490 q=-0.0 size=N/A time=00:16:41.37 bitrate=N/A speed=20.4x    frame=24271 fps=490 q=-0.0 size=N/A time=00:16:52.30 bitrate=N/A speed=20.5x    frame=24550 fps=491 q=-0.0 size=N/A time=00:17:03.93 bitrate=N/A speed=20.5x    frame=24814 fps=491 q=-0.0 size=N/A time=00:17:14.99 bitrate=N/A speed=20.5x    frame=25092 fps=492 q=-0.0 size=N/A time=00:17:26.54 bitrate=N/A speed=20.5x    frame=25361 fps=492 q=-0.0 size=N/A time=00:17:37.76 bitrate=N/A speed=20.5x    frame=25617 fps=492 q=-0.0 size=N/A time=00:17:48.44 bitrate=N/A speed=20.5x    frame=25869 fps=492 q=-0.0 size=N/A time=00:17:58.95 bitrate=N/A speed=20.5x    frame=26135 fps=492 q=-0.0 size=N/A time=00:18:10.04 bitrate=N/A speed=20.5x    frame=26394 fps=492 q=-0.0 size=N/A time=00:18:20.84 bitrate=N/A speed=20.5x    frame=26649 fps=492 q=-0.0 size=N/A time=00:18:31.48 bitrate=N/A speed=20.5x    frame=26930 fps=493 q=-0.0 size=N/A time=00:18:43.20 bitrate=N/A speed=20.6x    frame=27208 fps=493 q=-0.0 size=N/A time=00:18:54.80 bitrate=N/A speed=20.6x    frame=27476 fps=493 q=-0.0 size=N/A time=00:19:05.97 bitrate=N/A speed=20.6x    frame=27756 fps=494 q=-0.0 size=N/A time=00:19:17.65 bitrate=N/A speed=20.6x    frame=27996 fps=494 q=-0.0 size=N/A time=00:19:27.66 bitrate=N/A speed=20.6x    frame=28242 fps=494 q=-0.0 size=N/A time=00:19:37.92 bitrate=N/A speed=20.6x    frame=28523 fps=494 q=-0.0 size=N/A time=00:19:49.64 bitrate=N/A speed=20.6x    frame=28795 fps=494 q=-0.0 size=N/A time=00:20:00.99 bitrate=N/A speed=20.6x    frame=29064 fps=495 q=-0.0 size=N/A time=00:20:12.21 bitrate=N/A speed=20.6x    frame=29334 fps=495 q=-0.0 size=N/A time=00:20:23.47 bitrate=N/A speed=20.6x    frame=29618 fps=495 q=-0.0 size=N/A time=00:20:35.31 bitrate=N/A speed=20.7x    frame=29877 fps=495 q=-0.0 size=N/A time=00:20:46.11 bitrate=N/A speed=20.7x    frame=30131 fps=495 q=-0.0 size=N/A time=00:20:56.71 bitrate=N/A speed=20.7x    frame=30330 fps=494 q=-0.0 size=N/A time=00:21:05.01 bitrate=N/A speed=20.6x    frame=30590 fps=494 q=-0.0 size=N/A time=00:21:15.85 bitrate=N/A speed=20.6x    frame=30802 fps=494 q=-0.0 size=N/A time=00:21:24.70 bitrate=N/A speed=20.6x    frame=31043 fps=494 q=-0.0 size=N/A time=00:21:34.75 bitrate=N/A speed=20.6x    frame=31264 fps=493 q=-0.0 size=N/A time=00:21:43.96 bitrate=N/A speed=20.6x    frame=31540 fps=493 q=-0.0 size=N/A time=00:21:55.48 bitrate=N/A speed=20.6x    frame=31774 fps=493 q=-0.0 size=N/A time=00:22:05.24 bitrate=N/A speed=20.6x    frame=31973 fps=492 q=-0.0 size=N/A time=00:22:13.54 bitrate=N/A speed=20.5x    frame=32216 fps=492 q=-0.0 size=N/A time=00:22:23.67 bitrate=N/A speed=20.5x    frame=32431 fps=491 q=-0.0 size=N/A time=00:22:32.64 bitrate=N/A speed=20.5x    frame=32645 fps=491 q=-0.0 size=N/A time=00:22:41.56 bitrate=N/A speed=20.5x    frame=32906 fps=491 q=-0.0 size=N/A time=00:22:52.45 bitrate=N/A speed=20.5x    frame=33182 fps=491 q=-0.0 size=N/A time=00:23:03.96 bitrate=N/A speed=20.5x    frame=33459 fps=492 q=-0.0 size=N/A time=00:23:15.51 bitrate=N/A speed=20.5x    frame=33734 fps=492 q=-0.0 size=N/A time=00:23:26.98 bitrate=N/A speed=20.5x    [Parsed_psnr_10 @ 00000160b325d500] PSNR y:49.698291 u:51.513199 v:50.793963 average:50.127448 min:42.855450 max:inf
[out#0/null @ 00000160b38fba00] video:14531KiB audio:264492KiB subtitle:0KiB other streams:0KiB global headers:0KiB muxing overhead: unknown
frame=33818 fps=492 q=-0.0 Lsize=N/A time=00:23:30.49 bitrate=N/A speed=20.5x    
